# xmcd
#
# Track frame offsets:
#	150
#	16445
#	26532
#	36467
#	77377
#	84617
#	97292
#	110930
#	146950
#	153380
#	172827
#	185590
#
# Disc length: 2759 seconds
#
# Revision: 1
# Processed by: cddbd v1.5.2PL0 Copyright (c) Steve Scherf et al.
# Submitted via: audiograbber 1.83.01
#
DISCID=a10ac50c
DTITLE=Wishing Dulish - First Takes
DYEAR=1991
DGENRE=Blues
TTITLE0=Suspicious
TTITLE1=Don't Tell My Mother
TTITLE2=Howlin' Like A Wolf
TTITLE3=Sleepwalkin'
TTITLE4=Up All Nite
TTITLE5=They Called Him Muddy Waters
TTITLE6=Take Off
TTITLE7=I Roamed And Wandered
TTITLE8=Matchbox
TTITLE9=Pearls Before Swine
TTITLE10=Soothe Me, Honey
TTITLE11=Everything Is Said And Done
EXTD=
EXTT0=
EXTT1=
EXTT2=
EXTT3=
EXTT4=
EXTT5=
EXTT6=
EXTT7=
EXTT8=
EXTT9=
EXTT10=
EXTT11=
PLAYORDER=
